<?xml version="1.0" standalone="no"?><!DOCTYPE svg PUBLIC "-//W3C//DTD SVG 1.1//EN" "http://www.w3.org/Graphics/SVG/1.1/DTD/svg11.dtd"><svg t="1711018752089" class="icon" viewBox="0 0 1024 1024" version="1.1" xmlns="http://www.w3.org/2000/svg" p-id="4322" width="24" height="24" xmlns:xlink="http://www.w3.org/1999/xlink"><path d="M500.363636 209.454545A290.909091 290.909091 0 1 1 209.454545 500.363636 291.374545 291.374545 0 0 1 500.363636 209.454545m0-69.818181A360.727273 360.727273 0 1 0 861.090909 500.363636 360.727273 360.727273 0 0 0 500.363636 139.636364z" fill="#314158" p-id="4323"></path><path d="M884.363636 919.272727a35.141818 35.141818 0 0 1-24.669091-10.24l-139.636363-139.636363a34.909091 34.909091 0 1 1 49.338182-49.338182l139.636363 139.636363a34.676364 34.676364 0 0 1 0 49.338182 35.141818 35.141818 0 0 1-24.669091 10.24z" fill="#314158" p-id="4324"></path></svg>